<svg width="82" height="79" viewBox="0 0 82 79" fill="none" xmlns="http://www.w3.org/2000/svg">
<g clip-path="url(#clip0_104_7159)">
<path d="M17.3337 49.2026C20.4257 51.1934 23.7423 52.4164 27.3568 52.6088V52.0216C23.8866 51.6209 20.5566 50.6305 17.3337 49.2026Z" fill="#FDB927"/>
<path d="M29.5556 28.0215L27.4922 45.1162L33.2588 44.811L33.9994 36.06L36.8034 44.6076L39.7222 44.3767L42.0409 36.8233L42.9932 44.1496L47.5958 43.8172L45.2681 29.5478L40.348 29.2934L38.1789 37.1794L35.7982 28.7846L29.5556 28.0215Z" fill="#808080"/>
<path d="M47.8076 29.7261L47.9243 43.8322L55.4102 43.2602L55.3992 40.334H52.1457L52.1192 38.8332L55.0554 38.8076V35.526L52.1457 35.5007L52.0928 34.1016L55.3729 34.2033L55.3198 30.5147L47.8076 29.7261Z" fill="#808080"/>
<path d="M62.8167 35.4159L65.4355 33.8895C64.8248 32.9502 64.432 31.9605 62.7902 31.1931C61.8145 30.6841 60.0884 30.5112 58.9018 31.2185C57.1803 32.1011 56.0924 34.0223 56.0978 35.7975C55.9806 37.5794 56.0525 39.3823 56.9972 40.8852C58.5669 43.3931 60.8162 43.4687 62.9887 42.7169C64.0089 42.3004 65.4773 40.9288 65.5148 38.9774L65.6736 36.23L61.1767 36.1281L61.1501 38.7484L62.5521 38.7739C62.4724 39.3969 62.256 39.8271 61.0179 39.8931C60.54 39.8458 59.3576 39.6779 59.4044 38.1888L59.5101 35.683C59.5368 35.1322 60.3288 34.2685 61.3353 34.2967C61.9286 34.3129 62.467 34.5807 62.8167 35.4159Z" fill="#808080"/>
<path d="M68.2326 31.5088L65.5049 42.5144L68.1755 42.346L68.4686 40.9755H70.3415L70.5483 42.1666L72.9698 41.9904L71.0824 31.6653L68.2326 31.5088ZM69.6005 35.1499L70.1622 38.556L68.9165 38.5325L69.6005 35.1499Z" fill="#808080"/>
<path d="M30.4533 27.4468L28.3901 44.5415L34.1566 44.2363L34.8974 35.4853L37.7012 44.0327L40.62 43.802L42.9387 36.2486L43.891 43.5749L48.4936 43.2423L46.1658 28.9729L41.2458 28.7187L39.0766 36.6047L36.696 28.2099L30.4533 27.4468Z" fill="white"/>
<path d="M48.7053 29.1514L48.822 43.2575L56.308 42.6855L56.2971 39.7593H53.0434L53.0171 38.2584L55.9531 38.2329V34.9513L53.0434 34.9258L52.9905 33.5267L56.2706 33.6285L56.2177 29.94L48.7053 29.1514Z" fill="white"/>
<path d="M63.7145 34.8412L66.3333 33.3149C65.7226 32.3755 65.3298 31.3857 63.6882 30.6185C62.7123 30.1093 60.9862 29.9366 59.7996 30.6438C58.0781 31.5265 56.9902 33.4476 56.9958 35.2229C56.8785 37.0047 56.9503 38.8076 57.8952 40.3106C59.4649 42.8184 61.714 42.8941 63.8865 42.1422C64.9069 41.7258 66.3751 40.3541 66.4127 38.4026L66.5714 35.6554L62.0745 35.5535L62.0481 38.1737L63.4501 38.1992C63.3702 38.8221 63.1539 39.2524 61.9159 39.3184C61.4379 39.2711 60.2554 39.1032 60.3022 37.614L60.4081 35.1083C60.4346 34.5576 61.2266 33.6939 62.2333 33.7219C62.8264 33.7383 63.365 34.0061 63.7145 34.8412Z" fill="white"/>
<path d="M69.1301 30.9331L66.4023 41.9389L69.0731 41.7705L69.3663 40.4H71.2389L71.4458 41.5911L73.8674 41.4147L71.9799 31.0898L69.1301 30.9331ZM70.498 34.5742L71.0599 37.9805L69.8141 37.957L70.498 34.5742Z" fill="white"/>
<path d="M30.9023 27.1587L28.8389 44.2536L34.6055 43.9484L35.3461 35.1974L38.1501 43.7448L41.0689 43.5141L43.3876 35.9607L44.3399 43.287L48.9425 42.9544L46.6148 28.685L41.6947 28.4308L39.5256 36.3168L37.1449 27.922L30.9023 27.1587Z" fill="#EE1D25"/>
<path d="M49.1543 28.8623L49.271 42.9686L56.7568 42.3966L56.7459 39.4704H53.4924L53.4658 37.9694L56.4021 37.944V34.6624L53.4924 34.6369L53.4395 33.2378L56.7196 33.3397L56.6665 29.6509L49.1543 28.8623Z" fill="#EE1D25"/>
<path d="M64.1634 34.5537L66.7822 33.0273C66.1715 32.088 65.7787 31.0981 64.1368 30.3307C63.1612 29.8217 61.4351 29.649 60.2485 30.3563C58.527 31.2389 57.4391 33.1601 57.4445 34.9353C57.3272 36.7171 57.3992 38.5199 58.3439 40.023C59.9136 42.5308 62.1629 42.6065 64.3354 41.8546C65.3555 41.4382 66.8239 40.0666 66.8614 38.115L67.0202 35.3676L62.5234 35.2659L62.4968 37.8861L63.8988 37.9116C63.819 38.5345 63.6027 38.9648 62.3647 39.0308C61.8866 38.9836 60.7043 38.8157 60.7511 37.3264L60.8568 34.8208C60.8835 34.27 61.6755 33.4063 62.6822 33.4343C63.2753 33.4507 63.8137 33.7185 64.1634 34.5537Z" fill="#EE1D25"/>
<path d="M69.5793 30.645L66.8516 41.6508L69.5222 41.4823L69.8153 40.1119H71.6882L71.895 41.303L74.3165 41.1266L72.4291 30.8017L69.5793 30.645ZM70.9472 34.2861L71.5089 37.6924L70.2632 37.6689L70.9472 34.2861Z" fill="#EE1D25"/>
<path d="M32.136 34.4012C32.136 38.4896 28.7371 41.8039 24.5442 41.8039C20.3516 41.8039 16.9526 38.4896 16.9526 34.4012C16.9526 30.3128 20.3516 26.9985 24.5442 26.9985C28.7371 26.9985 32.136 30.3128 32.136 34.4012Z" fill="#FDB927"/>
<path d="M32.136 34.4012C32.136 38.4896 28.7371 41.8039 24.5442 41.8039C20.3516 41.8039 16.9526 38.4896 16.9526 34.4012C16.9526 30.3128 20.3516 26.9985 24.5442 26.9985C28.7371 26.9985 32.136 30.3128 32.136 34.4012Z" fill="url(#paint0_radial_104_7159)"/>
<path d="M32.5849 34.1136C32.5849 38.202 29.186 41.5163 24.9932 41.5163C20.8003 41.5163 17.4014 38.202 17.4014 34.1136C17.4014 30.0252 20.8003 26.7109 24.9932 26.7109C29.186 26.7109 32.5849 30.0252 32.5849 34.1136Z" fill="url(#paint1_radial_104_7159)"/>
<path d="M23.6928 34.5596L21.755 33.6249L19.7662 35.188L20.4979 33.0085L17.6594 31.5572L20.7764 31.6507L21.4213 29.6733L22.2361 31.6318L24.464 31.6261L22.8793 32.7963L23.6928 34.5596Z" fill="#214489"/>
<path d="M27.2297 30.9708L25.5552 30.3685L24.3703 31.6561L24.43 29.7585L22.6221 28.605L24.5224 28.4696L24.7035 27.082L25.6901 28.4619L27.2299 28.4317L26.3223 29.4892L27.2297 30.9708Z" fill="#214489"/>
<path d="M30.4952 31.5878L29.4041 31.4192L29.039 32.5984L28.4587 31.2405L27.2461 30.9755L28.3396 30.3304L28.1934 28.9619L29.0792 29.9211L29.9438 29.345L29.6555 30.5784L30.4952 31.5878Z" fill="#214489"/>
<path d="M30.4447 36.1001L29.6916 34.7863L28.5464 34.931L29.3614 33.9854L28.972 32.6597L29.8536 33.2808L30.6094 32.418L30.5868 33.7283L31.6081 34.3234L30.4925 34.5101L30.4447 36.1001Z" fill="#214489"/>
<path d="M24.9137 39.5134L23.5005 38.4821L21.1283 40.1739L22.2026 37.9262L20.0352 36.3893L22.9564 36.4521L23.677 34.5645L24.3617 36.3864L26.2021 36.435L24.6159 37.5299L24.9137 39.5134Z" fill="#214489"/>
<path d="M30.2677 36.9755L28.7476 36.725L28.5353 34.999L27.7268 36.5885L26.1899 36.4301L27.2105 37.6628L26.4729 39.2908L27.9121 38.4633L28.9307 39.5306L28.862 37.8837L30.2677 36.9755Z" fill="#214489"/>
<path d="M22.2893 42.9571C27.0775 45.2294 31.7649 42.8058 33.1253 38.605C30.8067 42.0966 25.172 43.3492 22.2893 42.9571Z" fill="#FDB927"/>
<path d="M16.82 31.1884C17.3124 29.7065 18.7962 27.8044 20.418 27.3174C19.8791 26.9973 17.038 24.8252 12.4888 25.5484C8.38405 26.4535 8.81985 30.9474 9.41723 32.7647C9.46027 31.6777 9.3395 30.1973 10.0391 29.3343C10.3849 28.9593 12.4849 28.1035 16.6012 31.0147C16.9304 31.2452 15.8922 30.4782 16.82 31.1884Z" fill="#FDB927"/>
<path d="M16.0898 32.1868C14.8371 31.0585 13.4273 30.191 11.6844 29.5344C9.59611 38.2026 17.6128 44.7483 22.7224 48.0444C18.471 47.2982 7.48708 40.2464 7.60693 30.3766C7.5817 29.7032 8.05757 24.7745 13.6487 24.6123C17.2463 24.6824 18.7643 25.4614 20.2353 26.1183" stroke="#FDB927" stroke-width="2.95"/>
<path d="M15.9056 32.3815L16.4642 32.8743L16.6195 32.2707L16.2432 31.9663L16.0035 32.1379L15.8826 32.2596L15.9056 32.3815Z" fill="#FDB927"/>
<path d="M20.0972 26.3467C20.5051 26.5621 20.9051 26.779 21.289 26.9994L22.1353 26.8222C21.524 26.5041 20.7728 26.0495 20.3204 25.8677L20.1432 26.0693L20.0972 26.3467Z" fill="#FDB927"/>
<path d="M21.0984 47.8549C22.0887 48.2525 24.0074 48.6977 25.5541 48.6115C23.9399 48.2905 23.5402 48.303 22.3134 47.4648L21.6052 47.5466L21.0984 47.8549Z" fill="#FDB927"/>
<path d="M10.6554 29.8071C9.86615 32.3742 10.4506 35.3521 11.8989 38.7104C10.225 35.9637 7.80648 33.2577 10.6554 29.8071Z" fill="#EE1D25"/>
<path d="M16.5048 28.3896C14.7891 31.3762 14.4008 34.4099 15.9981 37.5146C15.1187 34.4729 15.4209 31.4313 16.5048 28.3896Z" fill="#EE1D25"/>
<path d="M73.5277 44.128L73.0804 45.3325L72.3648 45.0399C71.7789 44.9061 71.7116 45.5725 72.0247 45.6249L72.7225 45.7969C73.1512 45.9297 73.3143 46.2449 73.4024 46.4508C73.6041 47.1327 73.4325 47.4159 73.3486 47.7927C73.0713 48.5129 72.5472 48.823 71.8995 48.9283C71.0866 49.0444 70.676 48.8894 70.1821 48.7906L70.7367 47.3454C70.8379 47.7197 71.2953 47.7308 71.4166 47.7582C71.6873 47.8248 71.903 47.7195 72.0069 47.5862C72.157 47.3361 71.9867 47.1616 71.8281 47.1045L71.0409 46.9497C70.5669 46.8282 70.4341 46.274 70.3521 45.9432C70.2996 45.5034 70.3541 45.1125 70.5892 44.7353C70.7741 44.3988 70.991 44.1739 71.3175 43.9353C71.6175 43.7435 72.1507 43.6672 72.5615 43.7323C73.2249 43.8643 73.2607 43.9962 73.5277 44.128Z" fill="#808080"/>
<path d="M27.7403 46.0425L26.498 54.7706L30.4731 54.2684L30.5701 49.7594L32.606 53.941L34.6746 53.6889L36.12 49.2624L36.8462 53.41L39.8789 52.9741L38.1873 45.6807L34.6707 45.7304L33.431 50.224L31.8469 45.8766L27.7403 46.0425Z" fill="#808080"/>
<path d="M40.6731 45.5557L43.8164 45.3379L43.9229 52.4262L40.971 52.8335L40.6731 45.5557Z" fill="#808080"/>
<path d="M45.073 45.2505L47.9384 45.1016L47.9679 49.7577L50.1803 49.5439L50.1717 51.6359L45.1103 52.326L45.073 45.2505Z" fill="#808080"/>
<path d="M55.8604 44.7401L58.0395 44.5762L58.0638 50.6104L55.8604 50.9408V44.7401Z" fill="#808080"/>
<path d="M64.3316 48.4198C63.55 49.9593 61.7454 50.7035 60.3009 50.0819C58.8564 49.4605 58.319 47.7086 59.1006 46.1691C59.8822 44.6295 61.687 43.8855 63.1314 44.507C64.5759 45.1286 65.1132 46.8804 64.3316 48.4198Z" fill="#808080"/>
<path d="M50.8394 45.0159L53.2706 44.877L53.2957 49.2233L55.173 49.0239L55.1658 50.9765L50.8711 51.6209L50.8394 45.0159Z" fill="#808080"/>
<path d="M65.251 44.1412L65.207 49.7037L66.7717 49.5008L66.8244 46.5926L68.1078 49.281L69.7605 49.1795L69.8835 43.9214L68.3188 44.006L68.3804 46.9816L66.93 44.0482L65.251 44.1412Z" fill="#808080"/>
<path d="M74.1231 43.5865L73.6758 44.7908L72.9601 44.4984C72.3744 44.3646 72.307 45.031 72.6202 45.0834L73.318 45.2554C73.7467 45.3882 73.9098 45.7034 73.9979 45.9091C74.1994 46.591 74.028 46.8744 73.9441 47.2512C73.6667 47.9713 73.1424 48.2814 72.495 48.3868C71.6818 48.5028 71.2715 48.3479 70.7776 48.2491L71.3321 46.8039C71.4334 47.1782 71.8907 47.1891 72.0121 47.2167C72.2827 47.2833 72.4985 47.178 72.6024 47.0448C72.7525 46.7944 72.5822 46.6201 72.4234 46.563L71.6362 46.4082C71.1624 46.2867 71.0295 45.7325 70.9475 45.4017C70.8948 44.9617 70.9494 44.571 71.1846 44.1937C71.3696 43.8573 71.5863 43.6324 71.913 43.3936C72.213 43.202 72.746 43.1257 73.1569 43.1908C73.8202 43.3226 73.856 43.4547 74.1231 43.5865Z" fill="white"/>
<path d="M28.3035 45.5319L27.061 54.26L31.0361 53.7578L31.1331 49.2489L33.1692 53.4302L35.2376 53.1783L36.6832 48.7516L37.4092 52.8993L40.4419 52.4636L38.7503 45.1699L35.2337 45.2197L33.994 49.7135L32.4099 45.366L28.3035 45.5319Z" fill="white"/>
<path d="M41.2034 45.0457L44.3469 44.8276L44.4532 51.9161L41.5015 52.3234L41.2034 45.0457Z" fill="white"/>
<path d="M45.6035 44.6143L48.4687 44.4653L48.4984 49.1215L50.7106 48.9079L50.7021 50.9997L45.6408 51.6899L45.6035 44.6143Z" fill="white"/>
<path d="M56.491 44.1337L58.6699 43.9697L58.6944 50.0038L56.491 50.3342V44.1337Z" fill="white"/>
<path d="M64.962 47.8134C64.1804 49.3528 62.3756 50.097 60.9312 49.4755C59.4867 48.8539 58.9494 47.1021 59.731 45.5625C60.5126 44.0232 62.3172 43.279 63.7617 43.9006C65.2062 44.522 65.7436 46.2739 64.962 47.8134Z" fill="white"/>
<path d="M51.4675 44.4114L53.899 44.2725L53.924 48.619L55.8012 48.4196L55.7939 50.3721L51.4993 51.0166L51.4675 44.4114Z" fill="white"/>
<path d="M65.8794 43.5987L65.8354 49.161L67.4 48.9581L67.4528 46.0501L68.7361 48.7383L70.3887 48.637L70.5117 43.3789L68.947 43.4635L69.0086 46.4391L67.5582 43.5058L65.8794 43.5987Z" fill="white"/>
<path d="M74.3944 43.358L73.9471 44.5625L73.2315 44.2699C72.6456 44.1362 72.5783 44.8024 72.8916 44.8549L73.5894 45.0269C74.0181 45.1598 74.181 45.4751 74.2691 45.6808C74.4708 46.3627 74.2992 46.6458 74.2155 47.0228C73.9382 47.7429 73.4139 48.053 72.7664 48.1583C71.9533 48.2744 71.5429 48.1194 71.0488 48.0207L71.6035 46.5754C71.7048 46.9497 72.162 46.9607 72.2833 46.9884C72.5542 47.0548 72.7697 46.9495 72.8736 46.8162C73.0237 46.5661 72.8536 46.3916 72.6948 46.3345L71.9076 46.1796C71.4336 46.0583 71.3008 45.504 71.2188 45.1732C71.1663 44.7334 71.2208 44.3427 71.456 43.9653C71.6408 43.6288 71.8577 43.4038 72.1842 43.1653C72.4842 42.9735 73.0174 42.8971 73.4283 42.9623C74.0916 43.0943 74.1274 43.2261 74.3944 43.358Z" fill="#33337A"/>
<path d="M28.6074 45.2731L27.365 54.0011L31.34 53.499L31.437 48.9899L33.4731 53.1714L35.5415 52.9195L36.9871 48.4928L37.7131 52.6405L40.7458 52.2046L39.0542 44.9111L35.5376 44.9609L34.298 49.4545L32.7138 45.1072L28.6074 45.2731Z" fill="#33337A"/>
<path d="M41.54 44.8482L44.6835 44.6304L44.7898 51.7188L41.838 52.126L41.54 44.8482Z" fill="#33337A"/>
<path d="M45.9397 44.4805L48.8051 44.3315L48.8346 48.9877L51.047 48.7739L51.0384 50.8659L45.977 51.5561L45.9397 44.4805Z" fill="#33337A"/>
<path d="M56.7273 43.9701L58.9063 43.8062L58.9306 49.8404L56.7273 50.1708V43.9701Z" fill="#33337A"/>
<path d="M65.1983 47.6499C64.4167 49.1893 62.6121 49.9335 61.1676 49.3119C59.7231 48.6905 59.1857 46.9386 59.9673 45.399C60.7491 43.8597 62.5537 43.1155 63.9982 43.7369C65.4427 44.3585 65.9799 46.1104 65.1983 47.6499Z" fill="#33337A"/>
<path d="M51.7061 44.2147L54.1375 44.0757L54.1626 48.4221L56.0397 48.2228L56.0651 50.2068L51.7378 50.8198L51.7061 44.2147Z" fill="#33337A"/>
<path d="M66.1178 43.3712L66.074 48.9336L67.6385 48.7308L67.6914 45.8228L68.9746 48.511L70.6273 48.4095L70.7503 43.1514L69.1856 43.2359L69.2472 46.2116L67.7967 43.2782L66.1178 43.3712Z" fill="#33337A"/>
<path d="M62.8196 44.3677L62.354 45.7802L60.3479 45.9525L61.9599 46.8826L61.5301 48.6052L62.8913 47.4339L64.1452 47.9851L63.6795 46.7105L64.7901 45.6769L63.4287 45.7458L62.8196 44.3677Z" fill="white"/>
<path d="M80.4186 39.6916C80.4186 60.5998 62.8062 77.6131 41.0001 77.6131C19.1939 77.6131 1.58154 60.5998 1.58154 39.6916C1.58154 18.7833 19.1939 1.77002 41.0001 1.77002C62.8062 1.77002 80.4186 18.7833 80.4186 39.6916Z" stroke="#E0E0E0" stroke-width="2"/>
</g>
<defs>
<radialGradient id="paint0_radial_104_7159" cx="0" cy="0" r="1" gradientUnits="userSpaceOnUse" gradientTransform="translate(21.4874 32.0283) rotate(70.8398) scale(7.78743 8.62314)">
<stop stop-color="#FFF6D5"/>
<stop offset="1" stop-color="#FFF6D5" stop-opacity="0"/>
</radialGradient>
<radialGradient id="paint1_radial_104_7159" cx="0" cy="0" r="1" gradientUnits="userSpaceOnUse" gradientTransform="translate(22.0571 32.0531) rotate(74.431) scale(3.1469 3.91382)">
<stop stop-color="#FFF6D5"/>
<stop offset="1" stop-color="#FFF6D5" stop-opacity="0"/>
</radialGradient>
<clipPath id="clip0_104_7159">
<rect width="81" height="78" fill="white" transform="translate(0.5 0.691406)"/>
</clipPath>
</defs>
</svg>
